# Rhino

g landscape_landscape_round_Mesh
v -9.602072715759277 5.974811061858632e-16 -0.991607666015625
v -9.242580413818359 5.974811061858632e-16 2.698009490966797
v -8.419876098632812 5.974811061858632e-16 -4.765884399414062
v -8.158618927001953 5.974811061858632e-16 5.079092025756836
v -7.540422916412354 3.132948875427246 2.170803070068359
v -6.821099281311035 5.974811061858632e-16 -6.8759765625
v -6.252496719360352 3.91490364074707 5.852959632873535
v -6.00872802734375 5.974811061858632e-16 7.474282264709473
v -5.647220611572266 1.200146198272705 -6.430747985839844
v -5.555534362792969 1.1953125 -2.125846862792969
v -5.30143928527832 5.974811061858632e-16 -8.111297607421875
v -4.650402069091797 0.7810070514678955 1.685836791992188
v -4.562797546386719 0.7810070514678955 -1.101783752441406
v -4.410711288452148 0.7810070514678955 0.03887176513671875
v -4.182580947875977 0.7810070514678955 -2.419872283935547
v -4.171270370483398 0.3911275863647461 -4.734977722167969
v -4.140420913696289 5.974811061858632e-16 8.637283325195312
v -3.961969375610352 1.503833293914795 3.070602416992188
v -3.785268783569336 0.997687816619873 -6.544258117675781
v -3.479330062866211 1.200146198272705 1.183761596679688
v -3.404817581176758 3.205272674560547 3.720794677734375
v -3.030502319335938 1.1953125 -2.546688079833984
v -2.543388366699219 1.503833293914795 2.821376800537109
v -2.358573913574219 5.974811061858632e-16 9.275154113769531
v -2.297412872314453 1.325839519500732 2.300624847412109
v -2.024269104003906 1.476227760314941 1.740772247314453
v -1.990749359130859 3.275247573852539 3.606485366821289
v -1.900047302246094 1.676427841186523 3.007406234741211
v -1.764377593994141 2.550572395324707 -0.338531494140625
v -1.605079650878906 5.974811061858632e-16 -9.557708740234375
v -1.510322570800781 0.5604958534240723 -5.046157836914062
v -1.381744384765625 1.200146198272705 -6.850418090820312
v -1.354663848876953 1.503833293914795 2.723472595214844
v -1.329788208007812 3.375646591186523 3.514989852905273
v -1.224514007568359 3.220703125 4.560226440429688
v -1.211311340332031 3.022737503051758 1.782878875732422
v -0.856475830078125 3.222484588623047 3.02178955078125
v -0.3749885559082031 3.056491851806641 3.536117553710938
v -0.3749885559082031 3.957313537597656 6.133155822753906
v -0.2793807983398438 5.549140930175781 0.8071174621582031
v -0.2713088989257812 1.1953125 -3.652267456054688
v 0.003139495849609375 6.214771270751953 -0.4100532531738281
v 0.0182342529296875 2.200715065002441 4.849252700805664
v 0.3081855773925781 5.974811061858632e-16 9.557704925537109
v 0.3362083435058594 1.1953125 -5.913398742675781
v 0.4171180725097656 0.6950900554656982 -7.236053466796875
v 1.049575805664062 3.205272674560547 3.844766616821289
v 1.049789428710938 3.946475982666016 2.578388214111328
v 1.185588836669922 2.838618278503418 5.606752395629883
v 1.598724365234375 3.204813003540039 -3.362800598144531
v 1.691089630126953 5.974811061858632e-16 -9.535514831542969
v 2.497459411621094 5.974811061858632e-16 9.228086471557617
v 2.766998291015625 3.615200042724609 1.727252960205078
v 2.946968078613281 3.592922210693359 3.139352798461914
v 3.636932373046875 3.408933639526367 3.023096084594727
v 3.698081970214844 2.735966682434082 -1.961017608642578
v 3.820404052734375 3.484199523925781 1.221511840820312
v 4.0509033203125 4.972843170166016 5.670810699462891
v 4.607582092285156 5.974811061858632e-16 -8.503219604492188
v 5.007179260253906 3.712425231933594 2.550754547119141
v 5.026603698730469 5.974811061858632e-16 8.133893013000488
v 5.386276245117188 1.1953125 -4.65087890625
v 5.5472412109375 4.790021896362305 -2.838779449462891
v 5.905204772949219 4.158313751220703 4.186733245849609
v 6.42218017578125 4.077585220336914 2.354331970214844
v 6.7794189453125 5.974811061858632e-16 -6.8759765625
v 6.7794189453125 5.974811061858632e-16 6.730993270874023
v 7.472015380859375 3.392908096313477 -0.03238677978515625
v 8.185989379882812 5.974811061858632e-16 -5.093788146972656
v 8.361991882324219 5.974811061858632e-16 4.669076919555664
v 9.126907348632812 5.974811061858632e-16 2.934101104736328
v 9.261543273925781 5.974811061858632e-16 -2.612342834472656
v 9.602073669433594 5.974811061858632e-16 0.1867599487304688
vt 0 0.5516349077224731
vt 0.01871955394744873 0.3595088720321655
vt 0.06155943870544434 0.7481693029403687
vt 0.07516366243362427 0.2355209589004517
vt 0.1073544025421143 0.3869615793228149
vt 0.1448110938072205 0.858046293258667
vt 0.1744194030761719 0.1952240467071533
vt 0.1871129274368286 0.1107983589172363
vt 0.205937385559082 0.834862232208252
vt 0.2107117176055908 0.6106970310211182
vt 0.2239429950714111 0.9223719835281372
vt 0.2578438520431519 0.4122148156166077
vt 0.2624055743217468 0.557371973991394
vt 0.2703250050544739 0.4979757070541382
vt 0.282204270362854 0.6260075569152832
vt 0.2827932238578796 0.7465599775314331
vt 0.2843996286392212 0.05023849010467529
vt 0.2936919331550598 0.3401071429252625
vt 0.3028931021690369 0.8407729864120483
vt 0.3188239932060242 0.4383589029312134
vt 0.322704017162323 0.3062503337860107
vt 0.3421953916549683 0.6326111555099487
vt 0.3675603866577148 0.3530848622322083
vt 0.3771840929985046 0.01702320575714111
vt 0.3803688883781433 0.380201518535614
vt 0.3945920467376709 0.4093542098999023
vt 0.3963375091552734 0.3122026324272156
vt 0.4010605216026306 0.3433979153633118
vt 0.408125102519989 0.5176278352737427
vt 0.4164201021194458 0.9976896047592163
vt 0.4213542938232422 0.7627637386322021
vt 0.428049623966217 0.8567153215408325
vt 0.4294597506523132 0.3581829071044922
vt 0.430755078792572 0.3169670104980469
vt 0.4362369775772095 0.2625393271446228
vt 0.4369244575500488 0.4071615934371948
vt 0.4554014801979065 0.342648983001709
vt 0.480473518371582 0.1806336641311646
vt 0.480473518371582 0.3158668279647827
vt 0.4854519963264465 0.4579715132713318
vt 0.4858723282814026 0.6901810169219971
vt 0.5001634359359741 0.5213521718978882
vt 0.5009493827819824 0.2474890947341919
vt 0.5160478353500366 0.002310216426849365
vt 0.5175069570541382 0.8079228401184082
vt 0.5217201709747314 0.8767962455749512
vt 0.554653525352478 0.2997947931289673
vt 0.5546646118164062 0.3657377958297729
vt 0.561735987663269 0.2080445289611816
vt 0.5832488536834717 0.6751078367233276
vt 0.5880584716796875 0.9965338706970215
vt 0.6300477981567383 0.01947414875030518
vt 0.6440832614898682 0.4100581407546997
vt 0.6534546613693237 0.3365271687507629
vt 0.6893825531005859 0.3425809144973755
vt 0.6925667524337769 0.6021140813827515
vt 0.6989363431930542 0.436393141746521
vt 0.7109389305114746 0.2047089338302612
vt 0.7399263381958008 0.9427801370620728
vt 0.7607342004776001 0.3671767115592957
vt 0.7617456912994385 0.07645106315612793
vt 0.7804745435714722 0.7421808242797852
vt 0.7888562679290771 0.6478209495544434
vt 0.8074963092803955 0.2819879055023193
vt 0.8344162702560425 0.3774048686027527
vt 0.8530184030532837 0.1495029926300049
vt 0.8530184030532837 0.858046293258667
vt 0.8890833854675293 0.5016862154006958
vt 0.9262614250183105 0.7652440071105957
vt 0.9354262351989746 0.2568712830543518
vt 0.9752570390701294 0.3472150564193726
vt 0.9822677373886108 0.6360299587249756
vt 0.9999998807907104 0.4902748465538025
vt 0.2703250050544739 0.4979757070541382
vt 0.2703250050544739 0.4979757070541382
vt 0.408125102519989 0.5176278352737427
vt 0.408125102519989 0.5176278352737427
vt 0.408125102519989 0.5176278352737427
vt 0.408125102519989 0.5176278352737427
vn -0.5643288493156433 0.8026123642921448 -0.1932519376277924
vn -0.8397440314292908 0.4941211342811584 0.2251093685626984
vn -0.2853014767169952 0.9530484080314636 -0.1014977395534515
vn -0.8232731223106384 0.377415269613266 0.4240036904811859
vn -0.1561594605445862 0.9766198992729187 -0.1477422267198563
vn -0.5172638297080994 0.6924994587898254 -0.5028743147850037
vn -0.4591851234436035 0.8285614848136902 0.3203668594360352
vn -0.6206258535385132 0.2667220830917358 0.7373484969139099
vn -0.2245979905128479 0.957825779914856 -0.179235965013504
vn 0.1193837746977806 0.9751195311546326 -0.186787024140358
vn -0.1979286223649979 0.8199606537818909 -0.5371115207672119
vn 0.09433446079492569 0.9676238298416138 -0.2341049909591675
vn -0.1376293152570724 0.9889407753944397 -0.05526557192206383
vn 0.343747466802597 0.9382455945014954 -0.03915202617645264
vn -0.03632616624236107 0.9955419898033142 -0.08704321831464767
vn -0.03990675508975983 0.9987807869911194 0.02905810996890068
vn -0.2625313103199005 0.749184250831604 0.608112096786499
vn -0.03045228123664856 0.8135600686073303 -0.5806829333305359
vn -0.03175351768732071 0.9968625903129578 -0.07250324636697769
vn -0.2642298340797424 0.9644352197647095 -0.006879805121570826
vn -0.1018800735473633 0.9278913140296936 -0.358661562204361
vn -0.2644249200820923 0.9273028969764709 -0.264931708574295
vn -0.01948571018874645 0.7530585527420044 -0.6576648950576782
vn -0.1652240753173828 0.6627349257469177 0.730399489402771
vn -0.09102159738540649 0.9810066819190979 -0.1712919771671295
vn -0.5348132848739624 0.7937541604042053 0.2897050678730011
vn -0.0680183544754982 0.7765401601791382 -0.6263856291770935
vn -0.09573823213577271 0.6249070167541504 -0.7748066782951355
vn -0.4333910048007965 0.901036262512207 -0.01748816482722759
vn -0.03107802197337151 0.9243215918540955 -0.380346804857254
vn -0.1434393376111984 0.988686203956604 0.04387179762125015
vn 0.003315852954983711 0.9943389296531677 -0.1062031760811806
vn -0.6524854898452759 0.7115799784660339 -0.260608047246933
vn -0.1430560946464539 0.8591415882110596 -0.4913355708122253
vn 0.06463399529457092 0.9911878705024719 0.1156246438622475
vn -0.7900682091712952 0.5243844389915466 0.3175109624862671
vn -0.4904367029666901 0.8714272379875183 -0.009297479875385761
vn 0.08589077740907669 0.979616641998291 0.1815875023603439
vn 0.1015115603804588 0.9273244142532349 0.3602288961410522
vn -0.4071880578994751 0.7631378769874573 0.501815140247345
vn -0.4679901003837585 0.7799391150474548 -0.4155480563640594
vn -0.1568232327699661 0.9362185001373291 -0.3144858479499817
vn 0.1510971933603287 0.9862687587738037 -0.06666041165590286
vn 0.2144106328487396 0.7111913561820984 0.6695034503936768
vn -0.1202374398708344 0.9590385556221008 -0.2564917802810669
vn 0.09797865152359009 0.9396663904190063 -0.3277609348297119
vn -0.2238428443670273 0.8825525045394897 0.4135159850120544
vn -0.1029222160577774 0.904433012008667 0.4140143990516663
vn -0.1634925901889801 0.9584107398986816 0.2339210212230682
vn -0.02493786066770554 0.832913875579834 -0.5528404712677002
vn 0.0442216731607914 0.9628086090087891 -0.2665408551692963
vn -0.009419281035661697 0.6753079295158386 0.7374757528305054
vn 0.3048751950263977 0.9453845620155334 0.1153219044208527
vn -0.02140095271170139 0.9997705817222595 \
 -0.0008841484668664634
vn 0.009154275059700012 0.9815797209739685 -0.1908336728811264
vn 0.0705874040722847 0.9720060229301453 -0.2241018712520599
vn -0.07273236662149429 0.9914399981498718 -0.1084285974502563
vn 0.1319169253110886 0.9397645592689514 0.3153418898582458
vn 0.1160002052783966 0.9434544444084167 -0.3105440735816956
vn -0.2434344589710236 0.968999445438385 -0.04218722507357597
vn 0.4568492770195007 0.4651855528354645 0.7582157850265503
vn 0.09214378148317337 0.8345655798912048 -0.5431481003761292
vn 0.1505303233861923 0.8614739179611206 -0.4849776327610016
vn 0.3590088784694672 0.9250900149345398 0.1237782165408134
vn 0.3716691136360168 0.9253028035163879 0.07534454017877579
vn 0.6431971192359924 0.4735937416553497 0.6016697287559509
vn 0.2959136962890625 0.9063472151756287 -0.3016120493412018
vn 0.4903412163257599 0.8713964819908142 0.01528484374284744
vn 0.4268168210983276 0.7142083048820496 -0.5547376871109009
vn 0.7720930576324463 0.520112156867981 0.3651789724826813
vn 0.8033515810966492 0.5512511134147644 0.2252741605043411
vn 0.7951978445053101 0.5636222958564758 -0.2235850989818573
vn 0.8461411595344543 0.5325510501861572 0.02084531262516975
vn -0.5427318811416626 0.8335815072059631 0.1028781980276108
vn -0.5427318811416626 0.8335815072059631 0.1028781980276108
vn -0.8973220586776733 0.4294453263282776 0.1019302308559418
vn -0.8973220586776733 0.4294453263282776 0.1019302308559418
vn -0.8973220586776733 0.4294453263282776 0.1019302308559418
vn -0.7823416590690613 0.3675673305988312 -0.5028278231620789
f 1/1/1 2/2/2 5/5/5
f 2/2/2 4/4/4 5/5/5
f 4/4/4 8/8/8 7/7/7
f 1/1/1 10/10/10 3/3/3
f 3/3/3 9/9/9 6/6/6
f 6/6/6 9/9/9 11/11/11
f 1/1/1 5/5/5 10/10/10
f 4/4/4 7/7/7 5/5/5
f 5/5/5 14/14/14 10/10/10
f 10/10/10 14/14/14 13/13/13
f 5/5/5 12/12/12 14/14/14
f 3/3/3 16/16/16 9/9/9
f 3/3/3 10/10/10 16/16/16
f 10/10/10 13/13/13 15/15/15
f 5/5/5 18/18/18 12/12/12
f 5/5/5 7/7/7 18/18/18
f 10/10/10 15/15/15 16/16/16
f 9/9/9 19/19/19 11/11/11
f 9/9/9 16/16/16 19/19/19
f 12/12/12 20/20/20 14/14/14
f 7/7/7 21/21/21 18/18/18
f 12/12/12 18/18/18 20/20/20
f 18/18/18 21/21/21 23/23/23
f 15/15/15 22/22/22 16/16/16
f 13/13/13 22/22/22 15/15/15
f 18/18/18 23/23/23 20/20/20
f 20/20/20 23/23/23 25/25/25
f 20/20/20 25/25/25 26/26/26
f 21/21/21 27/27/27 23/23/23
f 23/23/23 27/27/27 28/28/28
f 23/23/23 28/28/28 25/25/25
f 14/74/74 20/20/20 29/29/29
f 13/13/13 14/75/75 29/29/29
f 7/7/7 8/8/8 17/17/17
f 13/13/13 29/29/29 22/22/22
f 16/16/16 31/31/31 19/19/19
f 11/11/11 19/19/19 30/30/30
f 7/7/7 17/17/17 21/21/21
f 25/25/25 28/28/28 33/33/33
f 27/27/27 34/34/34 28/28/28
f 20/20/20 26/26/26 29/29/29
f 21/21/21 35/35/35 27/27/27
f 16/16/16 22/22/22 31/31/31
f 25/25/25 33/33/33 26/26/26
f 19/19/19 31/31/31 32/32/32
f 28/28/28 34/34/34 33/33/33
f 26/26/26 33/33/33 36/36/36
f 27/27/27 35/35/35 34/34/34
f 19/19/19 32/32/32 30/30/30
f 33/33/33 34/34/34 37/37/37
f 17/17/17 35/35/35 21/21/21
f 26/26/26 36/36/36 29/76/76
f 34/34/34 38/39/39 37/37/37
f 17/17/17 39/38/38 35/35/35
f 29/77/77 36/36/36 40/40/40
f 22/22/22 41/41/41 31/31/31
f 17/17/17 24/24/24 39/38/38
f 34/34/34 35/35/35 38/39/39
f 33/33/33 37/37/37 36/36/36
f 29/78/78 40/40/40 42/42/42
f 35/35/35 39/38/38 43/43/43
f 35/35/35 43/43/43 38/39/39
f 31/31/31 45/45/45 32/32/32
f 22/22/22 29/29/29 41/41/41
f 32/32/32 45/45/45 46/46/46
f 30/30/30 32/32/32 46/46/46
f 29/79/79 42/42/42 41/41/41
f 31/31/31 41/41/41 45/45/45
f 37/37/37 38/39/39 48/48/48
f 24/24/24 44/44/44 39/38/38
f 38/39/39 43/43/43 47/47/47
f 36/36/36 37/37/37 48/48/48
f 39/38/38 49/49/49 43/43/43
f 36/36/36 48/48/48 40/40/40
f 38/39/39 47/47/47 48/48/48
f 30/30/30 46/46/46 51/51/51
f 43/43/43 49/49/49 47/47/47
f 41/41/41 42/42/42 50/50/50
f 41/41/41 50/50/50 45/45/45
f 40/40/40 48/48/48 53/53/53
f 47/47/47 54/54/54 48/48/48
f 39/38/38 44/44/44 49/49/49
f 48/48/48 54/54/54 53/53/53
f 40/40/40 53/53/53 42/42/42
f 44/44/44 52/52/52 49/49/49
f 42/42/42 56/56/56 50/50/50
f 53/53/53 54/54/54 55/55/55
f 47/47/47 49/49/49 54/54/54
f 49/49/49 58/58/58 54/54/54
f 42/42/42 53/53/53 56/56/56
f 53/53/53 57/57/57 56/56/56
f 53/53/53 55/55/55 57/57/57
f 49/49/49 52/52/52 58/58/58
f 46/46/46 59/59/59 51/51/51
f 54/54/54 58/58/58 55/55/55
f 55/55/55 60/60/60 57/57/57
f 52/52/52 61/61/61 58/58/58
f 50/50/50 56/56/56 62/62/62
f 45/45/45 50/50/50 62/62/62
f 45/45/45 59/59/59 46/46/46
f 56/56/56 63/63/63 62/62/62
f 45/45/45 62/62/62 59/59/59
f 55/55/55 58/58/58 64/64/64
f 55/55/55 64/64/64 60/60/60
f 58/58/58 61/61/61 67/66/66
f 59/59/59 62/62/62 66/67/67
f 60/60/60 64/64/64 65/65/65
f 58/58/58 67/66/66 64/64/64
f 57/57/57 60/60/60 65/65/65
f 56/56/56 57/57/57 68/68/68
f 57/57/57 65/65/65 68/68/68
f 56/56/56 68/68/68 63/63/63
f 62/62/62 69/69/69 66/67/67
f 64/64/64 67/66/66 70/70/70
f 62/62/62 63/63/63 69/69/69
f 64/64/64 70/70/70 65/65/65
f 65/65/65 70/70/70 71/71/71
f 63/63/63 68/68/68 72/72/72
f 63/63/63 72/72/72 69/69/69
f 65/65/65 71/71/71 68/68/68
f 68/68/68 71/71/71 73/73/73
f 68/68/68 73/73/73 72/72/72
f 59/59/59 51/51/51 30/30/30
